<svg width="86" height="86" viewBox="0 0 86 86" fill="none" xmlns="http://www.w3.org/2000/svg">
<circle cx="43" cy="43" r="43" fill="#C5FFBC"/>
<path d="M43 86C34.4954 86 26.1818 83.4781 19.1105 78.7532C12.0392 74.0283 6.52776 67.3126 3.27319 59.4554C0.018624 51.5982 -0.83291 42.9523 0.826255 34.6111C2.48542 26.2699 6.58075 18.6081 12.5944 12.5944C18.6081 6.58077 26.2699 2.48542 34.6111 0.826252C42.9523 -0.832912 51.5982 0.0186312 59.4554 3.2732C67.3126 6.52777 74.0283 12.0392 78.7532 19.1105C83.4781 26.1818 86 34.4954 86 43C86 54.4043 81.4697 65.3415 73.4056 73.4056C65.3415 81.4697 54.4043 86 43 86ZM79.808 51.7221C75.5072 46.7372 70.4015 42.5083 64.703 39.2108C56.06 34.0973 48.3028 31.4571 41.7169 31.4261C42.08 34.9704 42.775 38.4728 43.7929 41.8872C49.8759 43.4456 55.7004 45.879 61.0841 49.1112C66.6842 52.3677 71.7749 56.4302 76.1926 61.1684C77.8169 58.1965 79.033 55.0191 79.808 51.7221ZM74.2352 64.3452C72.1646 61.941 69.8828 59.7271 67.4171 57.7301C63.6073 63.554 56.7531 69.7546 47.9123 74.7357C44.0459 76.9112 39.9809 78.7133 35.7726 80.1176C43.024 81.5613 50.5402 80.8352 57.3812 78.0302C64.2223 75.2252 70.0846 70.464 74.2352 64.3452ZM29.3914 78.2772C35.273 76.9553 40.9234 74.7597 46.1545 71.7636C54.7889 66.9011 60.9602 61.0892 64.3211 55.3668C62.7576 54.2419 61.1288 53.148 59.3899 52.1194C58.1515 51.3867 56.9114 50.7314 55.673 50.1019C51.9475 56.0909 44.9453 62.5358 35.8104 67.6803C31.1927 70.3022 26.2866 72.3801 21.1904 73.8723C23.7323 75.6726 26.4868 77.1521 29.3914 78.2772ZM17.7435 71.1186C23.4615 69.7815 28.9551 67.6216 34.0526 64.7064C42.6319 59.8749 48.9925 54.2299 52.4187 48.5762C49.1769 47.1135 45.7984 45.9745 42.3326 45.1758C37.9016 49.7035 32.8339 53.5608 27.2895 56.6258C22.1969 59.533 16.7482 61.7665 11.0802 63.2702C12.9367 66.1747 15.1783 68.8159 17.7435 71.1186ZM5.16001 43C5.16217 48.9277 6.56481 54.771 9.25361 60.0538C11.8658 59.4621 14.4309 58.6791 16.9283 57.7112C13.5176 49.8161 11.8502 41.2782 12.04 32.68C12.043 28.3282 12.4461 23.9858 13.244 19.7078C8.00166 26.3391 5.15299 34.5468 5.16001 43ZM18.0738 14.6114C16.3055 20.4696 15.4311 26.561 15.48 32.68C15.48 42.453 17.1209 50.5267 20.2324 56.3283C21.9954 55.5336 23.767 54.6461 25.5334 53.6502C26.8268 52.9227 28.0601 52.1556 29.2589 51.3747C25.6391 43.3452 23.8693 34.6052 24.08 25.8C24.056 20.2209 24.7098 14.6596 26.027 9.23814C23.1594 10.6858 20.487 12.4913 18.0738 14.6114ZM30.1998 7.44074C28.37 13.3868 27.4661 19.579 27.52 25.8C27.52 36.0134 28.7997 43.7104 32.0866 49.4276C35.0489 47.2888 37.7837 44.8514 40.248 42.1538C38.6235 36.2675 37.8133 30.1863 37.84 24.08C37.7942 17.7289 38.6495 11.4033 40.3804 5.29246C36.9039 5.53488 33.4778 6.25785 30.1998 7.44074ZM44.1541 5.2185C43.2292 8.01956 42.5389 10.8927 42.0901 13.8082C49.0235 14.2175 57.7782 17.0521 66.4694 22.1949C71.0396 24.8767 75.2846 28.0776 79.12 31.734C76.7699 24.2287 72.1398 17.6422 65.8732 12.8901C59.6066 8.13799 52.0151 5.45653 44.1541 5.2185ZM64.7666 25.2032C56.2492 20.1636 48.2546 17.5148 41.6498 17.4081C41.4145 19.6245 41.2911 21.8513 41.28 24.08C41.28 25.3425 41.3436 26.5706 41.4107 27.7952C48.4352 28.067 57.448 30.905 66.4006 36.2026C71.6044 39.2405 76.3755 42.965 80.5854 47.2759C80.9355 44.3715 80.924 41.4348 80.551 38.5332C76.129 33.1817 70.7828 28.6669 64.7666 25.2032Z" fill="black"/>
</svg>
