<svg width="30" height="30" viewBox="0 0 30 30" fill="none" xmlns="http://www.w3.org/2000/svg">
<path d="M15 30C12.0333 30 9.13319 29.1203 6.66645 27.472C4.19971 25.8238 2.27713 23.4811 1.14181 20.7403C0.00649927 17.9994 -0.290551 14.9834 0.288227 12.0737C0.867006 9.16394 2.29562 6.49119 4.3934 4.3934C6.49119 2.29562 9.16393 0.867006 12.0736 0.288228C14.9834 -0.290551 17.9994 0.00649927 20.7403 1.14181C23.4811 2.27713 25.8238 4.19972 27.472 6.66645C29.1203 9.13319 30 12.0333 30 15C30 18.9783 28.4196 22.7936 25.6066 25.6066C22.7936 28.4197 18.9783 30 15 30ZM15 2.3077C12.4897 2.3077 10.0358 3.05209 7.94854 4.44674C5.8613 5.84139 4.23449 7.82366 3.27384 10.1429C2.31319 12.4621 2.06184 15.0141 2.55158 17.4762C3.04131 19.9382 4.25014 22.1998 6.02519 23.9748C7.80024 25.7499 10.0618 26.9587 12.5239 27.4484C14.9859 27.9382 17.5379 27.6868 19.8571 26.7262C22.1764 25.7655 24.1586 24.1387 25.5533 22.0515C26.9479 19.9642 27.6923 17.5103 27.6923 15C27.6923 11.6338 26.3551 8.40546 23.9748 6.02519C21.5946 3.64492 18.3662 2.3077 15 2.3077Z" fill="black"/>
<path d="M21.3457 22.5C21.1939 22.5008 21.0433 22.4717 20.9028 22.4143C20.7622 22.3569 20.6343 22.2723 20.5265 22.1654L14.1803 15.8192C14.0734 15.7114 13.9888 15.5835 13.9314 15.4429C13.874 15.3024 13.8448 15.1518 13.8457 15V5.7692C13.8457 5.46318 13.9673 5.1697 14.1837 4.95331C14.4001 4.73692 14.6935 4.61536 14.9996 4.61536C15.3056 4.61536 15.5991 4.73692 15.8155 4.95331C16.0318 5.1697 16.1534 5.46318 16.1534 5.7692V14.5269L22.165 20.5269C22.2731 20.6342 22.3589 20.7618 22.4175 20.9024C22.4761 21.043 22.5063 21.1938 22.5063 21.3461C22.5063 21.4984 22.4761 21.6493 22.4175 21.7899C22.3589 21.9305 22.2731 22.0581 22.165 22.1654C22.0571 22.2723 21.9293 22.3569 21.7887 22.4143C21.6481 22.4717 21.4976 22.5008 21.3457 22.5Z" fill="black"/>
</svg>
