<svg width="30" height="30" viewBox="0 0 30 30" fill="none" xmlns="http://www.w3.org/2000/svg">
<g clip-path="url(#clip0_30_67)">
<path d="M15.0003 30C14.7879 30.001 14.5773 29.9601 14.3806 29.8797C14.184 29.7992 14.0051 29.6808 13.8542 29.5312L6.14799 21.825C4.93125 20.615 3.96811 19.1744 3.31495 17.5875C2.66179 16.0007 2.33173 14.2995 2.34408 12.5836C2.33884 10.9222 2.66512 9.27648 3.3038 7.74276C3.94248 6.20905 4.88073 4.81816 6.06362 3.65155C8.45266 1.31726 11.6602 0.010376 15.0003 0.010376C18.3405 0.010376 21.548 1.31726 23.9371 3.65155C25.1199 4.81816 26.0582 6.20905 26.6969 7.74276C27.3356 9.27648 27.6618 10.9222 27.6566 12.5836C27.6689 14.2995 27.3389 16.0007 26.6857 17.5875C26.0326 19.1744 25.0694 20.615 23.8527 21.825L16.1464 29.5172C15.9967 29.6693 15.8184 29.7903 15.6216 29.8732C15.4249 29.956 15.2138 29.9991 15.0003 30ZM15.0003 1.40624C12.0263 1.39939 9.16961 2.56582 7.05033 4.65233C6.00042 5.68891 5.16779 6.92446 4.60116 8.28671C4.03453 9.64896 3.74528 11.1105 3.75033 12.5859C3.73908 14.1164 4.03323 15.6337 4.61556 17.0491C5.19789 18.4645 6.05671 19.7495 7.14174 20.8289L14.8456 28.5211C14.8655 28.5417 14.8894 28.5581 14.9158 28.5693C14.9421 28.5805 14.9705 28.5863 14.9992 28.5863C15.0278 28.5863 15.0562 28.5805 15.0826 28.5693C15.1089 28.5581 15.1328 28.5417 15.1527 28.5211L22.8589 20.8289C23.944 19.7495 24.8028 18.4645 25.3851 17.0491C25.9674 15.6337 26.2616 14.1164 26.2503 12.5859C26.2554 11.1105 25.9661 9.64896 25.3995 8.28671C24.8329 6.92446 24.0002 5.68891 22.9503 4.65233C20.8311 2.56582 17.9744 1.39939 15.0003 1.40624Z" fill="black"/>
<path d="M15 19.0804C13.5228 19.0798 12.0915 18.567 10.9498 17.6296C9.8082 16.6921 9.02684 15.3879 8.73881 13.939C8.45077 12.4902 8.67388 10.9863 9.37014 9.68345C10.0664 8.38062 11.1927 7.35943 12.5574 6.79378C13.922 6.22814 15.4405 6.15302 16.8543 6.58122C18.2681 7.00942 19.4897 7.91447 20.3111 9.14222C21.1326 10.37 21.503 11.8445 21.3594 13.3147C21.2158 14.7849 20.5669 16.1599 19.5234 17.2054C18.93 17.8004 18.2249 18.2723 17.4487 18.594C16.6724 18.9158 15.8403 19.0811 15 19.0804ZM15 7.7156C13.8474 7.71743 12.7311 8.11876 11.8412 8.85122C10.9514 9.58369 10.3429 10.602 10.1195 11.7327C9.89617 12.8634 10.0717 14.0366 10.6162 15.0524C11.1607 16.0682 12.0405 16.8639 13.1058 17.3039C14.171 17.7439 15.3559 17.8009 16.4585 17.4654C17.5612 17.1298 18.5134 16.4224 19.153 15.4636C19.7926 14.5048 20.0801 13.354 19.9664 12.207C19.8528 11.0601 19.345 9.98802 18.5297 9.17341C18.0661 8.71015 17.5158 8.34292 16.9101 8.09276C16.3044 7.8426 15.6553 7.71443 15 7.7156Z" fill="black"/>
</g>
<defs>
<clipPath id="clip0_30_67">
<rect width="30" height="30" fill="white"/>
</clipPath>
</defs>
</svg>
