<svg width="18" height="23" viewBox="0 0 18 23" fill="none" xmlns="http://www.w3.org/2000/svg">
<path d="M8.94444 10.2222C9.95533 10.2222 10.9435 9.92246 11.784 9.36085C12.6245 8.79923 13.2796 8.00099 13.6665 7.06705C14.0533 6.13312 14.1546 5.10544 13.9573 4.11398C13.7601 3.12253 13.2733 2.21181 12.5585 1.49701C11.8437 0.78221 10.933 0.295424 9.94157 0.0982109C8.95011 -0.0990025 7.92244 0.00221455 6.98851 0.389062C6.05457 0.77591 5.25633 1.43101 4.69471 2.27153C4.1331 3.11205 3.83333 4.10023 3.83333 5.11111C3.83333 6.46666 4.37182 7.7667 5.33034 8.72522C6.28886 9.68373 7.58889 10.2222 8.94444 10.2222Z" fill="#231F20"/>
<path d="M16.6111 23C16.95 23 17.275 22.8654 17.5146 22.6257C17.7543 22.3861 17.8889 22.0611 17.8889 21.7222C17.8889 19.35 16.9465 17.075 15.2691 15.3975C13.5917 13.7201 11.3167 12.7778 8.94444 12.7778C6.57223 12.7778 4.29718 13.7201 2.61977 15.3975C0.942358 17.075 3.53487e-08 19.35 0 21.7222C0 22.0611 0.134623 22.3861 0.374253 22.6257C0.613883 22.8654 0.93889 23 1.27778 23H16.6111Z" fill="#231F20"/>
</svg>
